<svg width="920" height="904" viewBox="0 0 920 904" fill="none" xmlns="http://www.w3.org/2000/svg">
<path d="M353.5 56.869C414.452 21.6783 489.548 21.6783 550.5 56.869L744.943 169.131C805.896 204.322 843.443 269.357 843.443 339.738V564.262C843.443 634.643 805.896 699.678 744.943 734.869L550.5 847.131C489.548 882.322 414.452 882.322 353.5 847.131L159.057 734.869C98.1045 699.678 60.5565 634.643 60.5565 564.262V339.738C60.5565 269.357 98.1045 204.322 159.057 169.131L353.5 56.869Z" fill="white"/>
<path d="M375.596 501.019C372.398 503.725 368.216 505.939 363.05 507.661C358.13 509.137 352.349 509.875 345.707 509.875C336.851 509.875 329.471 508.768 323.567 506.554C317.909 504.34 314.219 500.527 312.497 495.115C305.609 473.467 299.951 456.001 295.523 442.717C291.095 429.187 287.651 417.379 285.191 407.293H283.346C282.608 421.807 281.993 435.091 281.501 447.145C281.255 458.953 281.009 470.515 280.763 481.831C280.763 493.147 280.517 504.586 280.025 516.148C279.779 527.71 279.287 540.502 278.549 554.524C275.351 555.754 271.169 556.738 266.003 557.476C260.837 558.46 255.671 558.952 250.505 558.952C239.681 558.952 231.194 557.23 225.044 553.786C219.14 550.342 216.188 544.069 216.188 534.967L226.889 346.777C228.857 343.579 233.162 340.135 239.804 336.445C246.446 332.755 255.794 330.91 267.848 330.91C280.886 330.91 291.095 333.001 298.475 337.183C305.855 341.119 311.267 347.638 314.711 356.74C316.925 362.644 319.262 369.409 321.722 377.035C324.428 384.661 327.011 392.533 329.471 400.651C332.177 408.769 334.76 416.887 337.22 425.005C339.68 432.877 341.894 440.011 343.862 446.407H345.707C351.611 425.743 357.515 405.817 363.419 386.629C369.323 367.195 374.735 350.959 379.655 337.921C383.345 335.953 388.019 334.354 393.677 333.124C399.581 331.648 406.1 330.91 413.234 330.91C425.288 330.91 435.128 332.755 442.754 336.445C450.38 339.889 454.808 344.932 456.038 351.574C457.022 356.494 458.006 364.12 458.99 374.452C460.22 384.538 461.45 395.977 462.68 408.769C463.91 421.561 465.14 435.091 466.37 449.359C467.6 463.627 468.707 477.403 469.691 490.687C470.921 503.725 471.905 515.779 472.643 526.849C473.381 537.673 473.873 546.037 474.119 551.941C469.937 554.401 465.509 556.123 460.835 557.107C456.407 558.337 450.626 558.952 443.492 558.952C434.144 558.952 426.272 557.353 419.876 554.155C413.48 550.957 410.036 544.684 409.544 535.336C408.068 508.522 407.084 484.414 406.592 463.012C406.346 441.61 405.854 423.652 405.116 409.138H403.271C400.811 418.732 397.244 430.786 392.57 445.3C387.896 459.814 382.238 478.387 375.596 501.019ZM578.5 467.071C567.676 463.381 557.836 459.691 548.98 456.001C540.124 452.065 532.498 447.391 526.102 441.979C519.706 436.567 514.663 430.171 510.973 422.791C507.529 415.165 505.807 405.94 505.807 395.116C505.807 374.206 513.802 357.478 529.792 344.932C546.028 332.386 568.66 326.113 597.688 326.113C608.266 326.113 618.106 326.851 627.208 328.327C636.31 329.803 644.059 332.14 650.455 335.338C657.097 338.29 662.263 342.226 665.953 347.146C669.643 351.82 671.488 357.355 671.488 363.751C671.488 370.147 670.012 375.682 667.06 380.356C664.108 384.784 660.541 388.597 656.359 391.795C650.947 388.351 643.69 385.399 634.588 382.939C625.486 380.233 615.523 378.88 604.699 378.88C593.629 378.88 585.511 380.479 580.345 383.677C575.179 386.629 572.596 390.442 572.596 395.116C572.596 398.806 574.195 401.881 577.393 404.341C580.591 406.555 585.388 408.646 591.784 410.614L611.341 416.887C634.465 424.267 652.177 433.738 664.477 445.3C677.023 456.616 683.296 472.114 683.296 491.794C683.296 512.704 675.055 529.678 658.573 542.716C642.091 555.508 617.86 561.904 585.88 561.904C574.564 561.904 563.986 560.92 554.146 558.952C544.552 557.23 536.065 554.647 528.685 551.203C521.551 547.513 515.893 543.085 511.711 537.919C507.775 532.507 505.807 526.357 505.807 519.469C505.807 512.335 507.898 506.308 512.08 501.388C516.262 496.222 520.813 492.286 525.733 489.58C532.621 494.992 540.985 499.666 550.825 503.602C560.911 507.538 571.858 509.506 583.666 509.506C595.72 509.506 604.207 507.661 609.127 503.971C614.047 500.281 616.507 495.976 616.507 491.056C616.507 486.136 614.539 482.446 610.603 479.986C606.667 477.28 601.132 474.697 593.998 472.237L578.5 467.071Z" fill="#047857"/>
</svg>
